<svg xmlns="http://www.w3.org/2000/svg" viewBox="0 0 32 32" fill="none">
  <!-- Coffee cup -->
  <path d="M6 12h14v10c0 2.21-1.79 4-4 4h-6c-2.21 0-4-1.79-4-4V12z" fill="#8B4513" stroke="#1b1818" stroke-width="1.5"/>

  <!-- Handle -->
  <path d="M20 14h2c2.21 0 4 1.79 4 4s-1.79 4-4 4h-2" fill="none" stroke="#1b1818" stroke-width="1.5" stroke-linecap="round"/>

  <!-- Steam -->
  <path d="M9 8c0-1.5 1-2 1-3.5S9 3 9 1.5" stroke="#7272ca" stroke-width="1.5" stroke-linecap="round" opacity="0.8"/>
  <path d="M13 8c0-1.5 1-2 1-3.5S13 3 13 1.5" stroke="#7272ca" stroke-width="1.5" stroke-linecap="round" opacity="0.8"/>
  <path d="M17 8c0-1.5 1-2 1-3.5S17 3 17 1.5" stroke="#7272ca" stroke-width="1.5" stroke-linecap="round" opacity="0.8"/>

  <!-- Saucer -->
  <ellipse cx="13" cy="28" rx="10" ry="2" fill="#1b1818" opacity="0.2"/>
</svg>
